HIERARCHY
ROOT Hips
{
	OFFSET 55.310501 45.591206 43.872097
	CHANNELS 6 Xposition Yposition Zposition Zrotation Xrotation Yrotation
	JOINT Chest
	{
		OFFSET -0.153500 1.163101 7.852402
		CHANNELS 6 Xposition Yposition Zposition Zrotation Xrotation Yrotation
		JOINT Chest2
		{
			OFFSET 0.000000 0.000000 3.343300
			CHANNELS 6 Xposition Yposition Zposition Zrotation Xrotation Yrotation
			JOINT Neck
			{
				OFFSET 0.000000 0.000000 7.785500
				CHANNELS 6 Xposition Yposition Zposition Zrotation Xrotation Yrotation
				JOINT Head
				{
					OFFSET 0.000000 0.000000 2.173901
					CHANNELS 6 Xposition Yposition Zposition Zrotation Xrotation Yrotation
					End Site
					{
						OFFSET 0.000000 0.000000 10.528198
					}
				}
			}
			JOINT LeftCollar
			{
				OFFSET 2.676300 -1.652401 4.938301
				CHANNELS 6 Xposition Yposition Zposition Zrotation Xrotation Yrotation
				JOINT LeftShoulder
				{
					OFFSET 4.299000 0.000000 0.000000
					CHANNELS 6 Xposition Yposition Zposition Zrotation Xrotation Yrotation
					JOINT LeftElbow
					{
						OFFSET 0.000000 0.000000 -10.245102
						CHANNELS 6 Xposition Yposition Zposition Zrotation Xrotation Yrotation
						JOINT LeftWrist
						{
							OFFSET 0.000000 0.000000 -12.703300
							CHANNELS 6 Xposition Yposition Zposition Zrotation Xrotation Yrotation
							End Site
							{
								OFFSET 0.000000 0.000000 -2.173901
							}
						}
					}
				}
			}
			JOINT RightCollar
			{
				OFFSET -2.534599 -1.686401 5.195000
				CHANNELS 6 Xposition Yposition Zposition Zrotation Xrotation Yrotation
				JOINT RightShoulder
				{
					OFFSET -4.144100 0.000000 0.000000
					CHANNELS 6 Xposition Yposition Zposition Zrotation Xrotation Yrotation
					JOINT RightElbow
					{
						OFFSET 0.000000 0.000000 -10.116501
						CHANNELS 6 Xposition Yposition Zposition Zrotation Xrotation Yrotation
						JOINT RightWrist
						{
							OFFSET 0.000000 0.000000 -12.937801
							CHANNELS 6 Xposition Yposition Zposition Zrotation Xrotation Yrotation
							End Site
							{
								OFFSET 0.000000 0.000000 -2.173901
							}
						}
					}
				}
			}
		}
	}
	JOINT LeftHip
	{
		OFFSET 2.175598 0.064499 -2.662899
		CHANNELS 6 Xposition Yposition Zposition Zrotation Xrotation Yrotation
		JOINT LeftKnee
		{
			OFFSET 0.000000 -0.000004 -18.585800
			CHANNELS 6 Xposition Yposition Zposition Zrotation Xrotation Yrotation
			JOINT LeftAnkle
			{
				OFFSET 0.000000 0.000000 -18.979500
				CHANNELS 6 Xposition Yposition Zposition Zrotation Xrotation Yrotation
				End Site
				{
					OFFSET 0.000000 -9.264000 0.000000
				}
			}
		}
	}
	JOINT RightHip
	{
		OFFSET -2.092400 -0.058102 -2.581200
		CHANNELS 6 Xposition Yposition Zposition Zrotation Xrotation Yrotation
		JOINT RightKnee
		{
			OFFSET 0.000000 -0.000004 -18.665001
			CHANNELS 6 Xposition Yposition Zposition Zrotation Xrotation Yrotation
			JOINT RightAnkle
			{
				OFFSET 0.000000 0.000000 -18.566601
				CHANNELS 6 Xposition Yposition Zposition Zrotation Xrotation Yrotation
				End Site
				{
					OFFSET 0.000000 -8.497601 0.000000
				}
			}
		}
	}
}
MOTION
Frames: 6
Frame Time: 0.041667
69.970001 -1.506500 47.762199 3181.985146 -3.768266 -1.354280 -0.153508 1.163090 7.852398 4.422377 14.693240 -0.344534 -0.000001 0.000012 3.343303 -2.257940 -3.140595 -0.031634 0.000002 -0.000006 7.785500 1.481424 10.119059 0.973491 0.000000 0.000015 2.173912 0.602669 -1.647889 -0.263967 2.676291 -1.652406 4.938295 1.378605 0.873034 -1.471750 4.298993 0.000003 0.000002 -361.417192 20.764429 284.692393 0.000007 0.000001 -10.245097 -11.097185 722.989840 359.646479 -0.000004 0.000001 -12.703303 1283.132779 -180.083224 584.230776 -2.534596 -1.686403 5.194996 1.994894 2.480593 11.816143 -4.144105 -0.000008 0.000005 177.259446 168.533415 -88.140634 0.000007 0.000002 -10.116495 -540.883008 -179.700897 -179.639166 0.000008 0.000002 -12.937807 -1453.744785 -23.820433 -39.500989 2.175593 0.064496 -2.662897 -1076.595509 3.145880 -6.152602 -0.000002 -0.000017 -18.585794 562.714424 -195.005958 -175.502175 0.000001 0.000001 -18.979504 683.949571 44.182257 -725.803277 -2.092395 -0.058110 -2.581203 1432.872710 2.711938 6.412167 0.000002 0.000002 -18.665007 -1111.352975 21.280453 -1081.994309 0.000008 -0.000003 -18.566603 746.304499 41.834133 -4.945445
69.928596 -1.464092 47.811398 3182.335726 -3.794861 -1.487714 -0.153496 1.163106 7.852400 4.289153 14.632811 -0.112762 0.000005 0.000002 3.343305 -2.211115 -3.206239 -0.029907 0.000003 0.000006 7.785494 1.539047 9.945643 0.954354 -0.000004 -0.000007 2.173895 0.543872 -1.773540 -0.215467 2.676301 -1.652392 4.938301 2.324491 0.507659 -1.019283 4.299000 0.000002 -0.000005 -361.685482 19.833684 283.212701 -0.000006 0.000002 -10.245097 -9.729845 722.730730 359.573232 -0.000010 -0.000006 -12.703304 1281.271252 -180.146840 584.173184 -2.534598 -1.686395 5.194998 1.618751 2.216666 11.612656 -4.144098 -0.000012 -0.000003 177.540604 168.461370 -87.312426 0.000001 -0.000003 -10.116496 -541.336096 -179.722836 -179.614659 0.000003 -0.000003 -12.937801 -1453.295195 -23.403662 -39.897778 2.175597 0.064501 -2.662901 -1076.653538 3.058803 -6.077982 -0.000005 -0.000007 -18.585798 563.112050 -194.935867 -175.610994 -0.000009 -0.000005 -18.979507 682.898870 44.912548 -724.914642 -2.092391 -0.058101 -2.581199 1432.566171 2.725158 6.437907 0.000001 -0.000010 -18.664999 -1111.842891 21.064647 -1081.919778 0.000003 -0.000008 -18.566605 746.383948 42.591475 -4.837277
69.889297 -1.425198 47.849499 3182.754499 -3.888745 -1.737159 -0.153508 1.163097 7.852396 4.189405 14.714374 0.227152 0.000005 0.000001 3.343303 -2.229208 -3.296649 -0.029545 0.000000 -0.000015 7.785500 1.431720 9.695419 1.053689 -0.000004 0.000004 2.173902 0.504818 -1.846703 -0.295481 2.676293 -1.652417 4.938305 2.390745 0.510628 -0.924964 4.298999 -0.000007 -0.000016 -361.360994 18.396373 282.145662 -0.000004 0.000000 -10.245101 -7.851932 722.499924 359.515422 -0.000010 0.000011 -12.703296 1278.673485 -180.157837 584.132640 -2.534599 -1.686412 5.195003 1.291014 1.967156 11.481574 -4.144102 0.000003 0.000005 177.621597 168.787293 -86.540382 0.000002 -0.000003 -10.116502 -541.451936 -179.625437 -179.671090 -0.000002 -0.000005 -12.937805 -1453.116954 -23.139790 -39.723906 2.175588 0.064496 -2.662907 -1077.072529 3.160823 -5.854798 0.000001 -0.000005 -18.585804 563.248654 -194.766942 -175.593058 0.000000 0.000003 -18.979500 682.491080 45.541393 -724.237415 -2.092400 -0.058111 -2.581203 1432.344983 2.809669 6.623116 0.000002 -0.000002 -18.665007 -1113.473175 20.645205 -1081.687005 0.000007 0.000007 -18.566601 747.301488 43.939853 -4.222315
69.848999 -1.382301 47.890488 3183.148792 -3.951639 -1.910402 -0.153499 1.163103 7.852398 4.045428 14.759089 0.484616 0.000004 0.000003 3.343303 -2.187752 -3.385790 -0.028270 0.000003 -0.000017 7.785498 1.442992 9.403209 1.078228 0.000001 -0.000001 2.173901 0.479204 -1.916710 -0.521290 2.676291 -1.652419 4.938300 2.549743 0.348442 -0.828102 4.298994 0.000013 -0.000006 -361.094070 17.251024 281.142826 0.000006 0.000000 -10.245103 -6.563394 722.110494 359.475834 -0.000002 0.000005 -12.703286 1276.789446 -180.197548 583.931669 -2.534603 -1.686410 5.194995 1.068539 1.547622 11.453443 -4.144106 -0.000005 -0.000002 177.796668 168.726641 -86.075772 0.000007 -0.000001 -10.116506 -542.301994 -179.642445 -179.470747 0.000003 0.000006 -12.937807 -1452.376671 -23.032895 -39.876629 2.175596 0.064501 -2.662901 -1077.266179 3.137325 -5.711794 0.000001 -0.000007 -18.585800 563.010854 -194.741589 -175.603808 -0.000011 0.000001 -18.979500 682.343275 46.051673 -723.756078 -2.092398 -0.058106 -2.581205 1431.983037 2.792064 6.726045 0.000002 -0.000016 -18.664999 -1113.374274 20.629946 -1081.719025 0.000001 -0.000008 -18.566601 746.894901 44.369114 -3.940039
69.811501 -1.343899 47.927788 3183.382658 -4.007232 -2.146346 -0.153494 1.163114 7.852413 4.198266 14.802504 0.825813 0.000002 0.000004 3.343296 -2.229600 -3.466346 -0.027790 -0.000008 -0.000005 7.785509 1.535088 9.129703 0.941880 0.000005 0.000005 2.173902 0.407924 -1.951259 -0.577083 2.676291 -1.652397 4.938303 2.568491 0.432585 -0.637706 4.299010 0.000004 -0.000009 -360.859794 16.103981 280.038084 -0.000002 0.000005 -10.245103 -5.557511 721.887502 359.462911 -0.000008 -0.000004 -12.703292 1275.651919 -180.222232 583.591580 -2.534599 -1.686399 5.194996 0.776980 1.324734 11.106303 -4.144100 0.000001 0.000002 177.897482 168.822701 -85.199923 0.000009 0.000002 -10.116498 -542.965068 -179.669219 -179.386900 0.000008 -0.000009 -12.937801 -1451.809492 -22.836910 -39.885648 2.175601 0.064499 -2.662894 -1077.337868 3.107262 -5.539697 0.000003 -0.000001 -18.585796 562.973261 -194.740714 -175.597251 -0.000003 -0.000001 -18.979504 682.122851 46.863328 -724.126329 -2.092388 -0.058100 -2.581192 1431.725894 2.719142 6.908548 0.000003 -0.000002 -18.665001 -1113.853371 20.580345 -1081.570291 -0.000003 -0.000001 -18.566603 747.263512 44.532547 -4.984263
69.768303 -1.312595 47.966900 3183.555762 -4.072142 -2.334662 -0.153500 1.163104 7.852404 4.339917 14.835736 1.058693 0.000001 0.000017 3.343301 -2.215446 -3.530301 -0.026914 0.000007 0.000005 7.785508 1.485313 8.894405 1.010124 -0.000001 -0.000004 2.173903 0.508810 -1.940951 -0.614730 2.676295 -1.652392 4.938300 2.665130 0.328396 -0.453152 4.298998 0.000003 -0.000009 -360.748326 15.130134 279.025413 -0.000004 0.000007 -10.245104 -4.631033 721.645276 359.374775 -0.000010 0.000008 -12.703289 1274.534937 -180.279537 583.437272 -2.534596 -1.686399 5.194996 0.752796 1.316591 11.041419 -4.144104 -0.000003 0.000001 177.734472 169.497483 -84.479529 0.000002 0.000004 -10.116501 -543.386464 -179.587899 -179.392992 0.000005 0.000007 -12.937803 -1450.935118 -22.672449 -39.833489 2.175598 0.064504 -2.662897 -1077.228367 3.083208 -5.393864 0.000001 -0.000004 -18.585804 562.571809 -194.724445 -175.586023 -0.000003 -0.000006 -18.979504 682.263935 47.495981 -724.471663 -2.092398 -0.058110 -2.581197 1431.581313 2.644818 7.085705 0.000006 0.000005 -18.664999 -1115.422784 20.421229 -1081.205395 0.000010 -0.000001 -18.566607 748.510705 45.631883 -4.496138
